<svg width="48" height="48" viewBox="0 0 48 48" fill="#37474F" xmlns="http://www.w3.org/2000/svg">
<circle cx="24" cy="24" r="24" fill="white"/>
<path d="M13.798 13.2H17.102V20.438H21.526V23H13.798V13.2ZM29.5399 23.224C28.4852 23.224 27.5379 23.0047 26.6979 22.566C25.8579 22.1273 25.1999 21.5207 24.7239 20.746C24.2479 19.962 24.0099 19.08 24.0099 18.1C24.0099 17.12 24.2479 16.2427 24.7239 15.468C25.1999 14.684 25.8579 14.0727 26.6979 13.634C27.5379 13.1953 28.4852 12.976 29.5399 12.976C30.5946 12.976 31.5419 13.1953 32.3819 13.634C33.2219 14.0727 33.8799 14.684 34.3559 15.468C34.8319 16.2427 35.0699 17.12 35.0699 18.1C35.0699 19.08 34.8319 19.962 34.3559 20.746C33.8799 21.5207 33.2219 22.1273 32.3819 22.566C31.5419 23.0047 30.5946 23.224 29.5399 23.224ZM29.5399 20.55C29.9506 20.55 30.3192 20.452 30.6459 20.256C30.9819 20.0507 31.2479 19.766 31.4439 19.402C31.6399 19.0287 31.7379 18.5947 31.7379 18.1C31.7379 17.6053 31.6399 17.176 31.4439 16.812C31.2479 16.4387 30.9819 16.154 30.6459 15.958C30.3192 15.7527 29.9506 15.65 29.5399 15.65C29.1292 15.65 28.7559 15.7527 28.4199 15.958C28.0932 16.154 27.8319 16.4387 27.6359 16.812C27.4399 17.176 27.3419 17.6053 27.3419 18.1C27.3419 18.5947 27.4399 19.0287 27.6359 19.402C27.8319 19.766 28.0932 20.0507 28.4199 20.256C28.7559 20.452 29.1292 20.55 29.5399 20.55ZM20.28 29.834H23.15V33.978C22.5713 34.3793 21.8993 34.6873 21.134 34.902C20.3687 35.1167 19.6173 35.224 18.88 35.224C17.8347 35.224 16.8967 35.0093 16.066 34.58C15.2353 34.1413 14.582 33.5347 14.106 32.76C13.6393 31.976 13.406 31.0893 13.406 30.1C13.406 29.1107 13.6393 28.2287 14.106 27.454C14.582 26.67 15.24 26.0633 16.08 25.634C16.9293 25.1953 17.886 24.976 18.95 24.976C19.9113 24.976 20.77 25.1393 21.526 25.466C22.2913 25.7833 22.926 26.25 23.43 26.866L21.316 28.728C20.7 28.0093 19.9673 27.65 19.118 27.65C18.39 27.65 17.8113 27.8693 17.382 28.308C16.9527 28.7467 16.738 29.344 16.738 30.1C16.738 30.8373 16.948 31.43 17.368 31.878C17.7973 32.326 18.3667 32.55 19.076 32.55C19.496 32.55 19.8973 32.4707 20.28 32.312V29.834ZM29.6958 35.224C28.6411 35.224 27.6938 35.0047 26.8538 34.566C26.0138 34.1273 25.3558 33.5207 24.8798 32.746C24.4038 31.962 24.1658 31.08 24.1658 30.1C24.1658 29.12 24.4038 28.2427 24.8798 27.468C25.3558 26.684 26.0138 26.0727 26.8538 25.634C27.6938 25.1953 28.6411 24.976 29.6958 24.976C30.7504 24.976 31.6978 25.1953 32.5378 25.634C33.3778 26.0727 34.0358 26.684 34.5118 27.468C34.9878 28.2427 35.2258 29.12 35.2258 30.1C35.2258 31.08 34.9878 31.962 34.5118 32.746C34.0358 33.5207 33.3778 34.1273 32.5378 34.566C31.6978 35.0047 30.7504 35.224 29.6958 35.224ZM29.6958 32.55C30.1064 32.55 30.4751 32.452 30.8018 32.256C31.1378 32.0507 31.4038 31.766 31.5998 31.402C31.7958 31.0287 31.8938 30.5947 31.8938 30.1C31.8938 29.6053 31.7958 29.176 31.5998 28.812C31.4038 28.4387 31.1378 28.154 30.8018 27.958C30.4751 27.7527 30.1064 27.65 29.6958 27.65C29.2851 27.65 28.9118 27.7527 28.5758 27.958C28.2491 28.154 27.9878 28.4387 27.7918 28.812C27.5958 29.176 27.4978 29.6053 27.4978 30.1C27.4978 30.5947 27.5958 31.0287 27.7918 31.402C27.9878 31.766 28.2491 32.0507 28.5758 32.256C28.9118 32.452 29.2851 32.55 29.6958 32.55Z" fill="#37474F"/>
</svg>
