<svg width="56" height="56" viewBox="0 0 56 56" fill="none" xmlns="http://www.w3.org/2000/svg">
<path opacity="0.24" d="M56 40C56 17.9 38.1 -9.66022e-07 16 0L16 40L56 40Z" fill="#B0BEC5"/>
<path d="M16 26.6875C18.4167 26.6875 20.6458 27.2917 22.6875 28.5C24.7292 29.6667 26.3333 31.2708 27.5 33.3125C28.7083 35.3542 29.3125 37.5833 29.3125 40C29.3125 42.4167 28.7083 44.6458 27.5 46.6875C26.3333 48.7292 24.7292 50.3542 22.6875 51.5625C20.6458 52.7292 18.4167 53.3125 16 53.3125C13.5833 53.3125 11.3542 52.7292 9.3125 51.5625C7.27083 50.3542 5.64583 48.7292 4.4375 46.6875C3.27083 44.6458 2.6875 42.4167 2.6875 40C2.6875 37.5833 3.27083 35.3542 4.4375 33.3125C5.64583 31.2708 7.27083 29.6667 9.3125 28.5C11.3542 27.2917 13.5833 26.6875 16 26.6875ZM16 29.3125C14.0833 29.3125 12.2917 29.7917 10.625 30.75C9 31.7083 7.70833 33.0208 6.75 34.6875C5.79167 36.3125 5.3125 38.0833 5.3125 40C5.3125 41.9167 5.79167 43.7083 6.75 45.375C7.70833 47 9 48.2917 10.625 49.25C12.2917 50.2083 14.0833 50.6875 16 50.6875C17.9167 50.6875 19.6875 50.2083 21.3125 49.25C22.9792 48.2917 24.2917 47 25.25 45.375C26.2083 43.7083 26.6875 41.9167 26.6875 40C26.6875 38.0833 26.2083 36.3125 25.25 34.6875C24.2917 33.0208 22.9792 31.7083 21.3125 30.75C19.6875 29.7917 17.9167 29.3125 16 29.3125ZM16 30.6875C17.25 30.6875 18.4375 30.9375 19.5625 31.4375C20.7292 31.8958 21.75 32.5417 22.625 33.375L16 40V30.6875Z" fill="#00ACC1"/>
</svg>
