<svg width="34" height="34" viewBox="0 0 34 34" fill="none" xmlns="http://www.w3.org/2000/svg">
<path d="M25.3594 3.64062V0.359375H8.64062V3.64062H0.359375V15.3594C0.359375 16.2448 0.671875 17.026 1.29688 17.7031C1.97396 18.3281 2.75521 18.6406 3.64062 18.6406H8.79688C9.16146 20.3073 9.91667 21.7396 11.0625 22.9375C12.2604 24.0833 13.6927 24.8385 15.3594 25.2031V28.7969C14.2135 28.9531 13.25 29.3177 12.4688 29.8906C11.8438 30.3073 11.349 30.8542 10.9844 31.5312C10.724 32 10.5417 32.4948 10.4375 33.0156L10.3594 33.6406H23.6406L23.5625 33.0156C23.4583 32.4948 23.276 32 23.0156 31.5312C22.651 30.8542 22.1562 30.3073 21.5312 29.8906C20.75 29.3177 19.7865 28.9531 18.6406 28.7969V25.2031C20.3073 24.8385 21.7135 24.0833 22.8594 22.9375C24.0573 21.7396 24.8385 20.3073 25.2031 18.6406H30.3594C31.2448 18.6406 32 18.3281 32.625 17.7031C33.3021 17.026 33.6406 16.2448 33.6406 15.3594V3.64062H25.3594ZM3.64062 15.3594V7H8.64062V15.3594H3.64062ZM22 17C22 18.3542 21.5052 19.526 20.5156 20.5156C19.526 21.5052 18.3542 22 17 22C15.6458 22 14.474 21.5052 13.4844 20.5156C12.4948 19.526 12 18.3542 12 17V3.64062H22V17ZM30.3594 15.3594H25.3594V7H30.3594V15.3594Z" fill="white"/>
</svg>
